<svg width="390" height="83" viewBox="0 0 390 83" fill="none" xmlns="http://www.w3.org/2000/svg">
<path fill-rule="evenodd" clip-rule="evenodd" d="M27.8804 20.5518C27.323 21.0826 27.0076 21.8186 27.0076 22.5883V25.6015C27.0076 26.378 26.378 27.0076 25.6015 27.0076L22.5883 27.0076C21.8186 27.0076 21.0826 27.323 20.5518 27.8804L11.9395 36.9233C9.3535 39.6386 9.3535 43.9055 11.9395 46.6208L20.5518 55.6638C21.0826 56.2211 21.8186 56.5365 22.5883 56.5365H25.6015C26.378 56.5365 27.0076 57.1661 27.0076 57.9427V60.9558C27.0076 61.7255 27.323 62.4615 27.8804 62.9923L36.9233 71.6046C39.6386 74.1906 43.9055 74.1906 46.6208 71.6046L55.6638 62.9923C56.2211 62.4615 56.5365 61.7255 56.5365 60.9558V57.9427C56.5365 57.1661 57.1661 56.5365 57.9427 56.5365H60.9558C61.7255 56.5365 62.4615 56.2211 62.9923 55.6638L71.6046 46.6208C74.1906 43.9055 74.1906 39.6386 71.6046 36.9233L62.9923 27.8804C62.4615 27.323 61.7255 27.0076 60.9558 27.0076H57.9427C57.1661 27.0076 56.5365 26.378 56.5365 25.6015V22.5883C56.5365 21.8186 56.2211 21.0826 55.6638 20.5518L46.6208 11.9395C43.9055 9.3535 39.6386 9.3535 36.9233 11.9395L27.8804 20.5518ZM43.2635 30.6082C42.4398 29.7845 41.1043 29.7845 40.2806 30.6082L30.6082 40.2806C29.7845 41.1043 29.7845 42.4398 30.6082 43.2635L40.2806 52.9358C41.1043 53.7595 42.4398 53.7595 43.2635 52.9358L52.9358 43.2635C53.7595 42.4398 53.7595 41.1043 52.9358 40.2806L43.2635 30.6082ZM23.2432 13.7166C22.5188 14.4066 22.1087 15.3634 22.1087 16.3639V20.2808C22.1087 21.2903 21.2903 22.1087 20.2808 22.1087H16.3639C15.3634 22.1087 14.4066 22.5188 13.7166 23.2433L2.52122 34.9984C-0.840406 38.5282 -0.840407 44.0748 2.52122 47.6045L13.7166 59.3597C14.4066 60.0842 15.3634 60.4943 16.3639 60.4943H20.2808C21.2903 60.4943 22.1087 61.3127 22.1087 62.3222V66.2391C22.1087 67.2396 22.5188 68.1963 23.2433 68.8863L34.9984 80.0818C38.5282 83.4434 44.0748 83.4434 47.6045 80.0818L59.3597 68.8863C60.0842 68.1964 60.4943 67.2396 60.4943 66.2391V62.3222C60.4943 61.3127 61.3127 60.4943 62.3222 60.4943H66.2391C67.2396 60.4943 68.1963 60.0842 68.8863 59.3597L80.0818 47.6045C83.4434 44.0748 83.4434 38.5282 80.0818 34.9984L68.8863 23.2433C68.1963 22.5188 67.2396 22.1087 66.2391 22.1087H62.3222C61.3127 22.1087 60.4943 21.2903 60.4943 20.2808V16.3639C60.4943 15.3634 60.0842 14.4066 59.3597 13.7166L47.6045 2.52122C44.0748 -0.840407 38.5282 -0.840407 34.9984 2.52122L23.2432 13.7166Z" fill="#FFD057"/>
<path d="M145.863 52.6132C144.531 52.6132 143.177 52.3425 141.802 51.801C140.428 51.2179 139.241 50.2808 138.241 48.9896C137.283 47.6985 136.804 45.9908 136.804 43.8666C136.804 40.7011 138.262 38.452 141.178 37.1192C144.135 35.7864 147.988 35.12 152.736 35.12H154.61C154.61 31.0382 154.048 28.2476 152.923 26.7482C151.799 25.2488 150.174 24.499 148.05 24.499C146.176 24.499 144.676 24.8947 143.552 25.6861C142.427 26.4774 141.636 27.8519 141.178 29.8095H138.366C138.366 28.3934 138.45 27.2896 138.616 26.4983C138.783 25.6653 139.22 24.8947 139.928 24.1867C140.678 23.4369 141.907 22.8955 143.614 22.5623C145.364 22.1874 147.259 22 149.3 22C152.673 22 155.339 22.9163 157.297 24.7489C159.254 26.5399 160.233 29.9969 160.233 35.12V51.9885H157.109L154.922 49.1771H154.61C153.86 50.135 152.757 50.9472 151.299 51.6136C149.841 52.28 148.029 52.6132 145.863 52.6132ZM148.675 49.8018C150.049 49.8018 151.195 49.4686 152.111 48.8022C153.027 48.1358 153.86 47.2195 154.61 46.0533V37.619H152.736C149.654 37.619 147.217 38.2021 145.426 39.3683C143.635 40.4929 142.74 41.9923 142.74 43.8666C142.74 45.7825 143.302 47.2611 144.426 48.3024C145.593 49.302 147.009 49.8018 148.675 49.8018Z" fill="white"/>
<path d="M166.898 29.8095C165.898 27.4771 164.94 25.8527 164.024 24.9364C163.108 23.9784 161.9 23.4578 160.4 23.3745V22.125C160.609 22.125 160.9 22.1041 161.275 22.0625C161.691 22.0208 162.108 22 162.524 22C164.732 22 166.731 22.5623 168.522 23.6869C170.313 24.7698 171.854 26.8107 173.145 29.8095L178.768 43.2418L187.515 22.6248H190.639L177.831 52.6132H176.582L166.898 29.8095Z" fill="white"/>
<path d="M201.29 52.6131C199.958 52.6131 198.604 52.3424 197.23 51.8011C195.856 51.2181 194.669 50.2811 193.67 48.9902C192.712 47.6993 192.233 45.992 192.233 43.8683C192.233 40.7035 193.69 38.4548 196.605 37.1223C199.562 35.7897 203.414 35.1234 208.161 35.1234H210.035C210.035 31.0425 209.473 28.2525 208.348 26.7534C207.224 25.2543 205.6 24.5047 203.476 24.5047C201.602 24.5047 200.103 24.9003 198.979 25.6915C197.855 26.4827 197.063 27.8569 196.605 29.8141H193.795C193.795 28.3982 193.878 27.2947 194.044 26.5035C194.211 25.6707 194.648 24.9003 195.356 24.1924C196.106 23.4428 197.334 22.9015 199.041 22.5684C200.79 22.1936 202.685 22.0062 204.726 22.0062C208.099 22.0062 210.764 22.9223 212.721 24.7546C214.678 26.5452 215.657 30.0015 215.657 35.1234V51.9885H212.534L210.347 49.1776H210.035C209.285 50.1354 208.182 50.9474 206.724 51.6137C205.267 52.28 203.456 52.6131 201.29 52.6131ZM204.101 49.8023C205.475 49.8023 206.62 49.4691 207.536 48.8029C208.453 48.1366 209.285 47.2205 210.035 46.0545V37.622H208.161C205.08 37.622 202.644 38.205 200.853 39.3709C199.062 40.4953 198.167 41.9944 198.167 43.8683C198.167 45.7838 198.729 47.2621 199.853 48.3032C201.019 49.3026 202.435 49.8023 204.101 49.8023Z" fill="white"/>
<path d="M225.304 30.1264C225.304 28.0026 225.012 26.4411 224.429 25.4417C223.846 24.4006 222.68 23.8801 220.931 23.8801H219.682V22.6308H225.304C226.845 22.6308 228.011 22.839 228.802 23.2555C229.635 23.6719 230.238 24.2965 230.613 25.1293H230.925C231.8 24.2549 232.924 23.5261 234.298 22.9431C235.714 22.3185 237.297 22.0062 239.046 22.0062C242.169 22.0062 244.709 22.839 246.666 24.5047C248.665 26.1704 249.664 29.0853 249.664 33.2495V51.9885H244.043V33.2495C244.043 30.3346 243.376 28.2109 242.044 26.8783C240.753 25.5041 239.129 24.817 237.172 24.817C234.965 24.817 232.883 25.9205 230.925 28.1276V51.9885H225.304V30.1264Z" fill="white"/>
<path d="M261.87 52.863C260.954 52.863 260.163 52.5298 259.496 51.8635C258.83 51.1973 258.497 50.3853 258.497 49.4275C258.497 48.5114 258.83 47.7202 259.496 47.0539C260.163 46.3876 260.954 46.0545 261.87 46.0545C262.828 46.0545 263.619 46.3876 264.244 47.0539C264.91 47.7202 265.243 48.5114 265.243 49.4275C265.243 50.3853 264.91 51.1973 264.244 51.8635C263.577 52.5298 262.786 52.863 261.87 52.863Z" fill="white"/>
<path d="M101.358 31.5294C101.358 28.9776 101.007 27.1013 100.307 25.9004C99.6065 24.6496 98.2055 24.0241 96.1041 24.0241H94.603V22.5231H114.117C118.92 22.5231 123.248 23.5488 127.101 25.6002C130.954 27.6517 132.88 31.6295 132.88 37.5336C132.88 41.4363 131.879 44.4385 129.878 46.5399C127.876 48.6414 125.625 50.0424 123.123 50.7429C120.671 51.4434 118.42 51.7936 116.368 51.7936H108.112V72.0579H101.358V31.5294ZM113.741 49.1668C115.343 49.1668 117.044 48.7665 118.845 47.9659C120.646 47.1153 122.172 45.7894 123.423 43.9881C124.724 42.1869 125.375 39.9103 125.375 37.1583C125.375 34.4064 124.724 32.1298 123.423 30.3285C122.172 28.5273 120.646 27.2264 118.845 26.4258C117.044 25.5752 115.343 25.1499 113.741 25.1499C111.99 25.1499 110.114 25.4001 108.112 25.9004V48.4163C110.114 48.9166 111.99 49.1668 113.741 49.1668Z" fill="white"/>
<path d="M338.759 25.4417C339.342 26.4411 339.633 28.0026 339.633 30.1264V51.9885H345.255V28.8771C345.879 27.9194 346.712 27.1698 347.753 26.6285C348.794 26.0455 349.939 25.754 351.189 25.754C352.313 25.754 353.313 25.9205 354.187 26.2537C355.061 26.5452 355.728 27.0032 356.186 27.6279L358.684 25.754C357.935 24.4214 357.206 23.4845 356.498 22.9431C355.665 22.3185 354.416 22.0062 352.75 22.0062C351.043 22.0062 349.544 22.3393 348.253 23.0056C347.004 23.6719 346.004 24.4839 345.255 25.4417H344.942C344.609 24.4423 344.026 23.7343 343.193 23.3179C342.402 22.8599 341.215 22.6308 339.633 22.6308H334.636V23.8801H335.261C337.01 23.8801 338.176 24.4006 338.759 25.4417Z" fill="white"/>
<path fill-rule="evenodd" clip-rule="evenodd" d="M309.857 50.1146C311.856 51.7803 314.417 52.6131 317.54 52.6131C319.289 52.6131 320.851 52.3216 322.225 51.7386C323.641 51.114 324.786 50.3644 325.66 49.49H325.973L328.159 51.9885H331.282V22.6308H325.66V46.4917C323.703 48.6988 321.621 49.8023 319.414 49.8023C317.457 49.8023 315.812 49.136 314.479 47.8034C313.189 46.4293 312.543 44.2847 312.543 41.3698V30.1264C312.543 28.0026 312.377 26.4203 312.043 25.3792C311.71 24.3381 311.148 23.6302 310.357 23.2555C309.607 22.839 308.462 22.6308 306.921 22.6308L300.548 22.581L300.552 22.5765L300.273 22.5789L299.976 22.5765L299.956 22.5815L285.095 22.7052C275.405 22.7052 270.56 26.5301 270.56 34.1798C270.56 36.5257 271.096 38.5657 272.167 40.2996C273.289 42.0336 274.666 43.3085 276.298 44.1245C275.431 44.7875 274.768 45.3995 274.309 45.9604C273.85 46.5214 273.62 47.3119 273.62 48.3319C273.62 50.2698 274.64 51.7997 276.68 52.9217C274.232 53.7377 272.218 55.0126 270.637 56.7466C269.056 58.4805 268.266 60.5205 268.266 62.8664C268.266 66.9972 269.77 70.0061 272.779 71.8931C275.839 73.78 279.944 74.7235 285.095 74.7235C290.246 74.7235 294.326 73.78 297.335 71.8931C300.394 70.0061 301.924 66.9972 301.924 62.8664C301.924 58.8885 300.343 55.9306 297.182 53.9927C294.071 52.0037 290.042 51.0093 285.095 51.0093C279.74 51.0093 277.063 50.1168 277.063 48.3319C277.063 46.5469 279.74 45.6544 285.095 45.6544C294.785 45.6544 299.629 41.8296 299.629 34.1798C299.629 32.2929 299.119 30.6354 298.1 29.2075C297.131 27.7285 295.856 26.5811 294.275 25.7651V25.713C295.308 25.2276 297.076 24.7204 299.976 24.3062C304.246 23.6962 306.062 25.4055 306.691 27.3003C306.834 28.0381 306.91 28.9037 306.92 29.8973C306.912 29.9566 306.904 30.0148 306.894 30.0716L306.921 30.058C306.921 30.0808 306.921 30.1035 306.921 30.1264V41.3698C306.921 45.534 307.9 48.4489 309.857 50.1146ZM285.095 42.977C287.39 42.977 289.226 42.2886 290.603 40.9116C292.031 39.4836 292.745 37.2397 292.745 34.1798C292.745 31.2729 292.031 29.08 290.603 27.601C289.226 26.1221 287.39 25.3826 285.095 25.3826C282.8 25.3826 280.939 26.0966 279.511 27.5245C278.134 28.9015 277.445 31.1199 277.445 34.1798C277.445 37.2397 278.134 39.4836 279.511 40.9116C280.939 42.2886 282.8 42.977 285.095 42.977ZM285.095 71.6636C288.155 71.6636 290.577 70.9241 292.362 69.4452C294.147 68.0172 295.04 65.8243 295.04 62.8664C295.04 57.7665 291.98 54.8341 285.86 54.0692L281.653 53.6867C279.562 54.5027 277.955 55.6501 276.833 57.1291C275.711 58.608 275.15 60.5205 275.15 62.8664C275.15 65.8243 276.043 68.0172 277.828 69.4452C279.613 70.9241 282.035 71.6636 285.095 71.6636Z" fill="white"/>
<path d="M375.89 52.6131C372.767 52.6131 370.206 51.7803 368.208 50.1146C366.25 48.4489 365.272 45.534 365.272 41.3698V30.1264C365.272 28.0026 364.98 26.4411 364.397 25.4417C363.814 24.4006 362.648 23.8801 360.899 23.8801H360.275V22.6308H365.272C366.812 22.6308 367.958 22.839 368.707 23.2555C369.498 23.6302 370.061 24.3381 370.394 25.3792C370.727 26.4203 370.893 28.0026 370.893 30.1264V41.3698C370.893 44.2847 371.539 46.4293 372.83 47.8034C374.162 49.136 375.807 49.8023 377.764 49.8023C379.971 49.8023 382.053 48.6988 384.011 46.4917V22.6308H389.632V51.9885H386.509L384.323 49.49H384.011C383.136 50.3644 381.991 51.114 380.575 51.7386C379.201 52.3216 377.639 52.6131 375.89 52.6131Z" fill="white"/>
</svg>
